<svg width="64" height="64" viewBox="0 0 64 64" fill="none" xmlns="http://www.w3.org/2000/svg">
<path d="M4.64444 47.6667C2.08889 47.6667 0 49.7556 0 52.3111C0 54.8667 2.08889 56.9556 4.64444 56.9556C7.2 56.9556 9.28889 54.8667 9.28889 52.3111C9.28889 49.7556 7.22222 47.6667 4.64444 47.6667Z" fill="#6515DD"/>
<path d="M61.822 7.11116L32.5776 16.4445V7.22227L1.04427 17.2889V44.0223L28.2443 35.3334V44.5112L63.9998 33.1112L54.3109 23.6445L61.822 7.11116ZM28.2443 30.7556L5.39983 38.0445V20.4667L28.2443 13.1778V30.7556ZM55.9109 31.1334L32.5776 38.5778V21.0223L54.0665 14.1556L49.1332 24.5556L55.9109 31.1334Z" fill="#6515DD"/>
</svg>
