<svg width="447" height="904" viewBox="0 0 447 904" fill="none" xmlns="http://www.w3.org/2000/svg">
<path d="M3.08112 102.54C3.08112 66.6474 3.08112 48.7013 10.0662 34.9922C16.2105 22.9335 26.0146 13.1294 38.0734 6.98509C51.7824 0 69.7285 0 105.621 0H341.141C377.034 0 394.98 0 408.689 6.98509C420.748 13.1294 430.552 22.9335 436.696 34.9922C443.681 48.7013 443.681 66.6474 443.681 102.54V232.316H445.53C446.21 232.316 446.762 232.868 446.762 233.549V338.307C446.762 338.987 446.21 339.539 445.53 339.539H443.681V801.46C443.681 837.353 443.681 855.299 436.696 869.008C430.552 881.066 420.748 890.871 408.689 897.015C394.98 904 377.034 904 341.141 904H105.621C69.7285 904 51.7824 904 38.0734 897.015C26.0146 890.871 16.2105 881.066 10.0662 869.008C3.08112 855.299 3.08112 837.353 3.08112 801.46V361.107H1.23245C0.551785 361.107 0 360.555 0 359.875V293.322C0 292.642 0.551785 292.09 1.23245 292.09H3.08112V276.684H1.23245C0.551785 276.684 0 276.133 0 275.452V208.9C0 208.219 0.551785 207.667 1.23245 207.667H3.08112V178.705H1.23245C0.551785 178.705 0 178.153 0 177.472V144.196C0 143.516 0.551785 142.964 1.23245 142.964H3.08112V102.54Z" fill="#141414"/>
</svg>
