<svg width="49" height="40" viewBox="0 0 49 40" fill="none" xmlns="http://www.w3.org/2000/svg">
<g clip-path="url(#clip0_1_644)">
<path d="M48.9952 4.87072C47.1605 5.6835 45.2145 6.217 43.2218 6.4535C45.2974 5.20948 46.8911 3.23952 47.6415 0.892346C45.6684 2.06323 43.5097 2.88819 41.2586 3.33158C39.4249 1.37809 36.8126 0.157227 33.9213 0.157227C28.37 0.157227 23.8691 4.6579 23.8691 10.2089C23.8691 10.9968 23.9581 11.7639 24.1294 12.4998C15.7753 12.0805 8.36861 8.07876 3.41072 1.99723C2.54565 3.48182 2.04995 5.20871 2.04995 7.05062C2.04995 10.5381 3.82469 13.6146 6.52172 15.4173C4.92545 15.3673 3.3643 14.9362 1.96861 14.1599C1.96804 14.202 1.96804 14.2441 1.96804 14.2864C1.96804 19.1567 5.43292 23.2194 10.0312 24.1429C8.55098 24.5454 6.99833 24.6044 5.49187 24.3151C6.77091 28.3086 10.4833 31.2146 14.8817 31.296C11.4415 33.9919 7.10718 35.599 2.39789 35.599C1.58641 35.599 0.786412 35.5513 0 35.4585C4.44842 38.3105 9.73206 39.9746 15.4086 39.9746C33.898 39.9746 44.0084 24.6577 44.0084 11.3746C44.0084 10.9387 43.9989 10.5052 43.9793 10.0742C45.9472 8.65155 47.6458 6.8895 48.9952 4.87072Z" fill="#55ACEE"/>
</g>
<defs>
<clipPath id="clip0_1_644">
<rect width="48.9952" height="40" fill="white"/>
</clipPath>
</defs>
</svg>
