<svg width="27" height="19" viewBox="0 0 27 19" fill="none" xmlns="http://www.w3.org/2000/svg">
<path d="M20.0284 5.46925C20.0284 5.46925 17.8343 12.3434 17.6721 12.9271C17.6073 12.3542 16.0077 0 16.0077 0C12.2678 0 10.2791 2.65886 9.21971 5.46925C9.21971 5.46925 6.55004 12.365 6.33388 12.9379C6.32308 12.3974 5.92316 5.53405 5.92316 5.53405C5.69605 2.08599 2.55071 0 0 0L3.06974 18.7097C6.98236 18.6989 9.09011 16.0509 10.1925 13.2298C10.1925 13.2298 12.538 7.14452 12.6354 6.87436C12.657 7.13372 14.3214 18.7097 14.3214 18.7097C18.245 18.7097 20.3636 16.2346 21.4984 13.5216L27 0C23.1196 0 21.0768 2.64806 20.0284 5.46925Z" fill="white"/>
</svg>
