<svg width="64" height="64" viewBox="0 0 64 64" fill="none" xmlns="http://www.w3.org/2000/svg">
<g clip-path="url(#clip0_1_600)">
<path d="M62.7253 16.4946C62.3635 15.133 61.6504 13.8904 60.6574 12.891C59.6644 11.8916 58.4263 11.1706 57.0671 10.8C52.0635 9.45459 32.0635 9.45459 32.0635 9.45459C32.0635 9.45459 12.0635 9.45459 7.05984 10.8C5.70062 11.1706 4.46257 11.8916 3.46958 12.891C2.47659 13.8904 1.76349 15.133 1.40166 16.4946C0.0634767 21.52 0.0634766 32 0.0634766 32C0.0634766 32 0.0634767 42.48 1.40166 47.5055C1.76349 48.8671 2.47659 50.1097 3.46958 51.1091C4.46257 52.1085 5.70062 52.8295 7.05984 53.2C12.0635 54.5455 32.0635 54.5455 32.0635 54.5455C32.0635 54.5455 52.0635 54.5455 57.0671 53.2C58.4263 52.8295 59.6644 52.1085 60.6574 51.1091C61.6504 50.1097 62.3635 48.8671 62.7253 47.5055C64.0635 42.48 64.0635 32 64.0635 32C64.0635 32 64.0635 21.52 62.7253 16.4946Z" fill="#FF0302"/>
<path d="M25.5182 41.5165V22.4837L42.2455 32.0001L25.5182 41.5165Z" fill="#FEFEFE"/>
</g>
<defs>
<clipPath id="clip0_1_600">
<rect width="64" height="64" fill="white"/>
</clipPath>
</defs>
</svg>
