<svg width="64" height="64" viewBox="0 0 64 64" fill="none" xmlns="http://www.w3.org/2000/svg">
<path d="M26.3682 26.848C24.5442 26.848 23.1042 28.448 23.1042 30.4C23.1042 32.352 24.5762 33.952 26.3682 33.952C28.1922 33.952 29.6322 32.352 29.6322 30.4C29.6642 28.448 28.1922 26.848 26.3682 26.848ZM38.0482 26.848C36.2242 26.848 34.7842 28.448 34.7842 30.4C34.7842 32.352 36.2562 33.952 38.0482 33.952C39.8722 33.952 41.3122 32.352 41.3122 30.4C41.3122 28.448 39.8722 26.848 38.0482 26.848Z" fill="#7289DA"/>
<path d="M53.6002 0H10.7202C7.10416 0 4.16016 2.944 4.16016 6.592V49.856C4.16016 53.504 7.10416 56.448 10.7202 56.448H47.0082L45.3122 50.528L49.4082 54.336L53.2802 57.92L60.1602 64V6.592C60.1602 2.944 57.2162 0 53.6002 0ZM41.2482 41.792C41.2482 41.792 40.0962 40.416 39.1362 39.2C43.3282 38.016 44.9282 35.392 44.9282 35.392C43.6162 36.256 42.3682 36.864 41.2482 37.28C39.6482 37.952 38.1122 38.4 36.6082 38.656C33.5362 39.232 30.7202 39.072 28.3202 38.624C26.4962 38.272 24.9282 37.76 23.6162 37.248C22.8802 36.96 22.0802 36.608 21.2802 36.16C21.1842 36.096 21.0882 36.064 20.9922 36C20.9282 35.968 20.8962 35.936 20.8642 35.904C20.2882 35.584 19.9682 35.36 19.9682 35.36C19.9682 35.36 21.5042 37.92 25.5682 39.136C24.6082 40.352 23.4242 41.792 23.4242 41.792C16.3522 41.568 13.6642 36.928 13.6642 36.928C13.6642 26.624 18.2722 18.272 18.2722 18.272C22.8802 14.816 27.2642 14.912 27.2642 14.912L27.5842 15.296C21.8242 16.96 19.1682 19.488 19.1682 19.488C19.1682 19.488 19.8722 19.104 21.0562 18.56C24.4802 17.056 27.2002 16.64 28.3202 16.544C28.5122 16.512 28.6722 16.48 28.8642 16.48C30.8162 16.224 33.0242 16.16 35.3282 16.416C38.3682 16.768 41.6322 17.664 44.9602 19.488C44.9602 19.488 42.4322 17.088 36.9922 15.424L37.4402 14.912C37.4402 14.912 41.8242 14.816 46.4322 18.272C46.4322 18.272 51.0402 26.624 51.0402 36.928C51.0402 36.928 48.3202 41.568 41.2482 41.792Z" fill="#7289DA"/>
</svg>
