<svg width="40" height="40" viewBox="0 0 40 40" fill="none" xmlns="http://www.w3.org/2000/svg">
<g clip-path="url(#clip0_1_651)">
<path d="M8.41265 25.2062C8.41265 27.5237 6.53968 29.3969 4.22218 29.3969C1.90468 29.3969 0.0317078 27.5237 0.0317078 25.2062C0.0317078 22.8889 1.90468 21.0159 4.22233 21.0159H8.41249V25.2064L8.41265 25.2062ZM10.508 25.2062C10.508 22.8889 12.3809 21.0159 14.6984 21.0159C17.0159 21.0159 18.8889 22.8889 18.8889 25.2064V35.6825C18.8889 38 17.0159 39.8731 14.6983 39.8731C12.3811 39.8731 10.508 38 10.508 35.6825V25.2062Z" fill="#E01E5A"/>
<path d="M14.6984 8.38094C12.3809 8.38094 10.5078 6.50797 10.5078 4.19047C10.5078 1.87297 12.3811 0 14.6984 0C17.0158 0 18.8889 1.87297 18.8889 4.19047V8.38109H14.6983L14.6984 8.38094ZM14.6984 10.508C17.0159 10.508 18.8889 12.3809 18.8889 14.6984C18.8889 17.0159 17.0159 18.8889 14.6983 18.8889H4.19063C1.87297 18.8889 0 17.0159 0 14.6983C0 12.3811 1.87297 10.508 4.19047 10.508H14.6984Z" fill="#36C5F0"/>
<path d="M31.4922 14.6984C31.4922 12.3809 33.3651 10.5078 35.6825 10.5078C38 10.5078 39.8731 12.3809 39.8731 14.6984C39.8731 17.0159 38 18.8889 35.6825 18.8889H31.4922V14.6984ZM29.3969 14.6984C29.3969 17.0159 27.5237 18.8889 25.2062 18.8889C22.8889 18.8889 21.0159 17.0159 21.0159 14.6983V4.19063C21.0159 1.87297 22.8889 0 25.2062 0C27.5236 0 29.3967 1.87297 29.3967 4.19047V14.6983L29.3969 14.6984Z" fill="#2EB67D"/>
<path d="M25.2062 31.4922C27.5237 31.4922 29.3969 33.3651 29.3969 35.6825C29.3969 38 27.5237 39.8731 25.2062 39.8731C22.8889 39.8731 21.0159 38 21.0159 35.6825V31.4922H25.2062ZM25.2062 29.3969C22.8889 29.3969 21.0159 27.5237 21.0159 25.2062C21.0159 22.8889 22.8889 21.0159 25.2064 21.0159H35.7142C38.0317 21.0159 39.9048 22.8889 39.9048 25.2064C39.9048 27.5237 38.0317 29.3969 35.7142 29.3969H25.2062Z" fill="#ECB22E"/>
</g>
<defs>
<clipPath id="clip0_1_651">
<rect width="40" height="40" fill="white"/>
</clipPath>
</defs>
</svg>
