<svg width="64" height="64" viewBox="0 0 64 64" fill="none" xmlns="http://www.w3.org/2000/svg">
<g clip-path="url(#clip0_1_603)">
<path d="M63.376 32.7372C63.376 30.5619 63.1997 28.3749 62.8234 26.2349H32.64V38.5575H49.9246C49.2073 42.5318 46.9027 46.0475 43.5281 48.2815V56.2771H53.8401C59.8956 50.7037 63.376 42.473 63.376 32.7372Z" fill="#4285F4"/>
<path d="M32.6399 64.0022C41.2705 64.0022 48.5488 61.1685 53.8518 56.2771L43.5398 48.2815C40.6708 50.2333 36.967 51.3386 32.6517 51.3386C24.3034 51.3386 17.2249 45.7064 14.6851 38.1341H4.04395V46.3766C9.47624 57.1824 20.5407 64.0022 32.6399 64.0022Z" fill="#34A853"/>
<path d="M14.6734 38.1341C13.333 34.1598 13.333 29.8563 14.6734 25.882V17.6395H4.04398C-0.494692 26.6816 -0.494692 37.3345 4.04398 46.3766L14.6734 38.1341Z" fill="#FBBC04"/>
<path d="M32.6399 12.6658C37.2021 12.5952 41.6115 14.3119 44.9155 17.4631L54.0517 8.32698C48.2666 2.89468 40.5885 -0.0919093 32.6399 0.00215644C20.5407 0.00215644 9.47624 6.82193 4.04395 17.6395L14.6734 25.882C17.2014 18.2979 24.2916 12.6658 32.6399 12.6658Z" fill="#EA4335"/>
</g>
<defs>
<clipPath id="clip0_1_603">
<rect width="64" height="64" fill="white"/>
</clipPath>
</defs>
</svg>
