<svg width="64" height="64" viewBox="0 0 64 64" fill="none" xmlns="http://www.w3.org/2000/svg">
<path d="M24.3176 0.93419L25.0358 3.84348C22.2051 4.5431 19.4957 5.66484 16.9989 7.17099L15.4624 4.59808C18.2107 2.93374 21.1968 1.69824 24.3176 0.93419ZM39.6823 0.93419L38.9641 3.84348C41.7948 4.5431 44.5042 5.66484 47.001 7.17099L48.5557 4.59808C45.8001 2.9352 42.8083 1.69985 39.6823 0.93419ZM4.59804 15.4534C2.93525 18.2057 1.69988 21.1945 0.934152 24.3176L3.84345 25.0359C4.54306 22.2051 5.6648 19.4958 7.17095 16.9989L4.59804 15.4534ZM2.99793 32C2.99771 30.5452 3.10712 29.0925 3.32523 27.6542L0.361384 27.1997C-0.120461 30.3787 -0.120461 33.6122 0.361384 36.7912L3.32523 36.3458C3.10746 34.9074 2.99806 33.4547 2.99793 32ZM48.5375 59.3928L47.001 56.829C44.5081 58.3366 41.8016 59.4584 38.9732 60.1565L39.6914 63.0658C42.8084 62.2944 45.7908 61.0561 48.5375 59.3928ZM61.002 32C61.0019 33.4547 60.8925 34.9074 60.6747 36.3458L63.6385 36.7912C64.1204 33.6122 64.1204 30.3787 63.6385 27.1997L60.6747 27.6542C60.8928 29.0925 61.0022 30.5452 61.002 32ZM63.0658 39.6733L60.1565 38.955C59.4585 41.7892 58.3367 44.5018 56.829 47.001L59.4019 48.5466C61.0663 45.7918 62.3017 42.7998 63.0658 39.6733ZM36.3457 60.6747C33.465 61.1112 30.5349 61.1112 27.6542 60.6747L27.2087 63.6386C30.3847 64.1205 33.6152 64.1205 36.7912 63.6386L36.3457 60.6747ZM55.3471 49.2012C53.619 51.5445 51.547 53.6134 49.2012 55.338L50.9831 57.7563C53.567 55.8542 55.8529 53.5775 57.7654 51.0013L55.3471 49.2012ZM49.2012 8.65291C51.5472 10.3808 53.6192 12.4527 55.3471 14.7988L57.7654 12.9987C55.8596 10.4201 53.5798 8.14035 51.0013 6.23456L49.2012 8.65291ZM8.65287 14.7988C10.3807 12.4527 12.4527 10.3808 14.7988 8.65291L12.9986 6.23456C10.4201 8.14035 8.14031 10.4201 6.23452 12.9987L8.65287 14.7988ZM59.4019 15.4534L56.829 16.9989C58.3365 19.4918 59.4584 22.1984 60.1565 25.0268L63.0658 24.3086C62.3 21.1883 61.0646 18.2025 59.4019 15.4534ZM27.6542 3.32527C30.5349 2.88882 33.465 2.88882 36.3457 3.32527L36.7912 0.361422C33.6152 -0.120474 30.3847 -0.120474 27.2087 0.361422L27.6542 3.32527ZM10.1893 58.5564L3.998 59.9929L5.44356 53.8015L2.52517 53.1197L1.07962 59.311C0.989169 59.6949 0.975289 60.0928 1.03877 60.482C1.10225 60.8712 1.24184 61.2441 1.44957 61.5794C1.65729 61.9146 1.92907 62.2056 2.24935 62.4357C2.56964 62.6658 2.93214 62.8305 3.31614 62.9203C3.76521 63.0204 4.23079 63.0204 4.67987 62.9203L10.8712 61.493L10.1893 58.5564ZM3.1434 50.4467L6.07087 51.1195L7.07094 46.8283C5.61051 44.3785 4.52276 41.725 3.84345 38.955L0.934152 39.6733C1.58854 42.3247 2.57842 44.8819 3.87981 47.2829L3.1434 50.4467ZM17.1444 56.9381L12.8532 57.9382L13.535 60.8657L16.6898 60.1292C19.089 61.4346 21.6467 62.4246 24.2994 63.0749L25.0177 60.1656C22.2563 59.4774 19.6122 58.3836 17.1717 56.9199L17.1444 56.9381ZM32 5.99818C17.6353 6.00727 6.00723 17.6535 6.00723 32.0091C6.01515 36.8986 7.39821 41.6874 9.99842 45.8282L7.49825 56.5017L18.1626 54.0015C30.318 61.6475 46.3737 58.0018 54.0197 45.8555C61.6657 33.7092 58.0291 17.6535 45.8828 9.99846C41.7245 7.38355 36.912 5.99685 32 5.99818Z" fill="#3A76F0"/>
</svg>
