<svg width="64" height="64" viewBox="0 0 64 64" fill="none" xmlns="http://www.w3.org/2000/svg">
<path d="M47.3875 26.925C48.85 22.85 53.0625 11.0625 53.0625 7.2875C53.0625 3.9625 51.1 1.175 47.6 1.175C42.025 1.175 37.025 17.6375 35.4625 21.5625C34.25 18 28.575 0 23.575 0C19.6875 0 17.8625 2.8625 17.8625 6.4625C17.8625 10.875 22.1375 22.3125 23.6875 26.7125C22.9 26.425 22.05 26.175 21.1875 26.175C18.2625 26.175 15.15 29.8125 15.15 32.75C15.15 33.8625 15.7625 35.425 16.15 36.4625C11.5375 37.7125 9.7625 40.7875 9.7625 45.425C9.75 54.45 18.3 64 30.325 64C45.075 64 54.25 52.925 54.25 38.6375C54.25 33.25 53.3875 28.3875 47.3875 26.925ZM42.9625 13.5C43.4625 11.9625 45.6 5.4625 47.6 5.4625C48.675 5.4625 48.9625 6.575 48.9625 7.4625C48.9625 9.85 44.1375 23.0375 43.075 25.9625L38.825 25.2125L42.9625 13.5ZM21.7875 6.0375C21.7875 4.55 23.6 0.325 27.575 11.925L31.9 24.4625C29.95 24.3 28.4375 24.0875 27.475 24.6375C26.1125 21.0375 21.7875 9.675 21.7875 6.0375ZM21.5 30.5C25.1625 30.5 29.8875 42.325 29.8875 43.925C29.8875 44.5625 29.275 45.35 28.5625 45.35C25.95 45.35 18.95 35.7375 18.95 33.1375C18.9625 32.175 20.5375 30.5 21.5 30.5ZM44.5375 53.7875C40.9 57.7875 36.25 59.8625 30.825 59.8625C23.4 59.8625 17.5375 55.7875 14.7125 48.825C12.575 43.4 15.1875 40.2875 17.2875 40.2875C18.7125 40.2875 24.075 47.825 24.075 49.425C24.075 50.0375 23.1125 50.4625 22.6125 50.4625C20.6 50.4625 19.8125 48.525 16.225 44.0375C12.5125 47.75 18.7875 54.9 23.5125 54.9C26.775 54.9 28.9 51.875 28.2625 49.65C28.725 49.65 29.3 49.6875 29.725 49.575C29.8625 52.9625 30.8625 57 34.9375 57.2875C34.9375 57.175 35.1875 56.4 35.1875 56.3625C35.1875 54.1875 33.8625 52.2875 33.8625 50.075C33.8625 46.5375 36.575 43.1125 39.325 41.1125C40.325 40.3625 41.5375 39.9 42.7125 39.475C43.925 39.0125 45.2125 38.475 46.1375 37.55C46 36.15 45.425 34.9125 44.025 34.9125C40.5625 34.9125 28.95 35.4125 28.95 29.95C28.95 29.1125 28.9625 28.3125 31.125 28.3125C35.1625 28.3125 45.4125 29.3125 48.4125 31.95C50.675 33.9625 51.45 46.1 44.5375 53.7875ZM32.2125 38.0375C33.425 38.425 34.675 38.5375 35.925 38.7875C35 39.4625 34.175 40.2875 33.3875 41.175C33.0375 40.1125 32.6125 39.075 32.2125 38.0375Z" fill="black"/>
</svg>
