<svg width="40" height="40" viewBox="0 0 40 40" fill="none" xmlns="http://www.w3.org/2000/svg">
<path fill-rule="evenodd" clip-rule="evenodd" d="M4.05497e-06 20C-0.000641845 23.7557 1.05624 27.4358 3.04966 30.6188C5.04308 33.8018 7.89247 36.3593 11.2717 37.9983L1.73167 11.86C0.588295 14.4207 -0.00178477 17.194 4.05497e-06 19.9983M33.5 18.99C33.5 16.5183 32.6117 14.8067 31.85 13.475C30.8383 11.825 29.8867 10.4317 29.8867 8.78335C29.8867 6.94502 31.28 5.23335 33.245 5.23335C33.3333 5.23335 33.4183 5.24502 33.5033 5.25002C29.8205 1.86746 25.0005 -0.00655965 20 1.72528e-05C13.0117 1.72528e-05 6.86667 3.58502 3.28834 9.01335C3.75834 9.03002 4.20167 9.03668 4.57667 9.03668C6.66834 9.03668 9.90667 8.78335 9.90667 8.78335C10.9833 8.72002 11.1117 10.305 10.0333 10.4317C10.0333 10.4317 8.95 10.5583 7.745 10.6217L15.0283 32.285L19.405 19.1583L16.29 10.6234C15.5883 10.5795 14.888 10.5156 14.19 10.4317C13.1133 10.3683 13.24 8.72002 14.3183 8.78335C14.3183 8.78335 17.6217 9.03835 19.585 9.03835C21.6783 9.03835 24.9167 8.78335 24.9167 8.78335C25.995 8.72002 26.1217 10.305 25.0433 10.4317C25.0433 10.4317 23.96 10.5583 22.755 10.6217L29.9833 32.12L31.9783 25.455C32.8417 22.6883 33.5 20.7017 33.5 18.99ZM20.35 21.7483L14.35 39.1833C18.3785 40.371 22.6788 40.2591 26.64 38.8633C26.5854 38.7757 26.538 38.6837 26.4983 38.5883L20.35 21.75V21.7483ZM37.55 10.4033C37.635 11.0417 37.6833 11.7233 37.6833 12.46C37.6833 14.4883 37.3033 16.77 36.1633 19.6233L30.0533 37.285C33.0794 35.5268 35.5908 33.0049 37.3363 29.9716C39.0818 26.9382 40.0004 23.4997 40 20C40 16.5233 39.1117 13.2533 37.55 10.4033Z" fill="black"/>
</svg>
